<svg width="201" height="41" viewBox="0 0 201 41" fill="none" xmlns="http://www.w3.org/2000/svg">
<mask id="path-1-outside-1_1609_2907" maskUnits="userSpaceOnUse" x="0" y="0" width="201" height="41" fill="black">
<rect fill="white" width="201" height="41"/>
<path d="M20.064 38.288C16.736 38.288 13.728 37.552 11.04 36.08C8.384 34.608 6.288 32.576 4.752 29.984C3.248 27.36 2.496 24.432 2.496 21.2C2.496 17.968 3.248 15.056 4.752 12.464C6.288 9.84 8.4 7.792 11.088 6.32C13.776 4.848 16.784 4.112 20.112 4.112C22.608 4.112 24.912 4.528 27.024 5.36C29.136 6.192 30.928 7.408 32.4 9.008L30.144 11.264C27.52 8.608 24.208 7.28 20.208 7.28C17.552 7.28 15.136 7.888 12.96 9.104C10.784 10.32 9.072 11.984 7.824 14.096C6.608 16.208 6 18.576 6 21.2C6 23.824 6.608 26.192 7.824 28.304C9.072 30.416 10.784 32.08 12.96 33.296C15.136 34.512 17.552 35.12 20.208 35.12C24.24 35.12 27.552 33.776 30.144 31.088L32.4 33.344C30.928 34.944 29.12 36.176 26.976 37.04C24.864 37.872 22.56 38.288 20.064 38.288ZM54.036 17.696C54.836 16 56.02 14.72 57.588 13.856C59.188 12.992 61.156 12.56 63.492 12.56V15.872L62.676 15.824C60.02 15.824 57.94 16.64 56.436 18.272C54.932 19.904 54.18 22.192 54.18 25.136V38H50.772V12.752H54.036V17.696ZM89.9678 12.56C93.2638 12.56 95.7918 13.392 97.5518 15.056C99.3118 16.688 100.192 19.12 100.192 22.352V38H96.9278V34.064C96.1598 35.376 95.0238 36.4 93.5198 37.136C92.0478 37.872 90.2878 38.24 88.2398 38.24C85.4238 38.24 83.1838 37.568 81.5198 36.224C79.8558 34.88 79.0238 33.104 79.0238 30.896C79.0238 28.752 79.7918 27.024 81.3278 25.712C82.8958 24.4 85.3758 23.744 88.7678 23.744H96.7838V22.208C96.7838 20.032 96.1758 18.384 94.9598 17.264C93.7438 16.112 91.9678 15.536 89.6318 15.536C88.0318 15.536 86.4958 15.808 85.0238 16.352C83.5518 16.864 82.2878 17.584 81.2318 18.512L79.6958 15.968C80.9758 14.88 82.5118 14.048 84.3038 13.472C86.0958 12.864 87.9838 12.56 89.9678 12.56ZM88.7678 35.552C90.6878 35.552 92.3358 35.12 93.7118 34.256C95.0878 33.36 96.1118 32.08 96.7838 30.416V26.288H88.8638C84.5438 26.288 82.3838 27.792 82.3838 30.8C82.3838 32.272 82.9438 33.44 84.0638 34.304C85.1838 35.136 86.7518 35.552 88.7678 35.552ZM129.32 5.024C127.848 5.024 126.728 5.424 125.96 6.224C125.224 7.024 124.856 8.208 124.856 9.776V12.752H132.632V15.632H124.952V38H121.544V15.632H117.032V12.752H121.544V9.632C121.544 7.328 122.2 5.504 123.512 4.16C124.856 2.816 126.744 2.144 129.176 2.144C130.136 2.144 131.064 2.288 131.96 2.576C132.856 2.832 133.608 3.216 134.216 3.728L133.064 6.272C132.072 5.44 130.824 5.024 129.32 5.024ZM162.05 36.464C161.41 37.04 160.61 37.488 159.65 37.808C158.722 38.096 157.746 38.24 156.722 38.24C154.354 38.24 152.53 37.6 151.25 36.32C149.97 35.04 149.33 33.232 149.33 30.896V15.632H144.818V12.752H149.33V7.232H152.738V12.752H160.418V15.632H152.738V30.704C152.738 32.208 153.106 33.36 153.842 34.16C154.61 34.928 155.698 35.312 157.106 35.312C157.81 35.312 158.482 35.2 159.122 34.976C159.794 34.752 160.37 34.432 160.85 34.016L162.05 36.464ZM188.606 12.56C191.902 12.56 194.43 13.392 196.19 15.056C197.95 16.688 198.83 19.12 198.83 22.352V38H195.566V34.064C194.798 35.376 193.662 36.4 192.158 37.136C190.686 37.872 188.926 38.24 186.878 38.24C184.062 38.24 181.822 37.568 180.158 36.224C178.494 34.88 177.662 33.104 177.662 30.896C177.662 28.752 178.43 27.024 179.966 25.712C181.534 24.4 184.014 23.744 187.406 23.744H195.422V22.208C195.422 20.032 194.814 18.384 193.598 17.264C192.382 16.112 190.606 15.536 188.27 15.536C186.67 15.536 185.134 15.808 183.662 16.352C182.19 16.864 180.926 17.584 179.87 18.512L178.334 15.968C179.614 14.88 181.15 14.048 182.942 13.472C184.734 12.864 186.622 12.56 188.606 12.56ZM187.406 35.552C189.326 35.552 190.974 35.12 192.35 34.256C193.726 33.36 194.75 32.08 195.422 30.416V26.288H187.502C183.182 26.288 181.022 27.792 181.022 30.8C181.022 32.272 181.582 33.44 182.702 34.304C183.822 35.136 185.39 35.552 187.406 35.552Z"/>
</mask>
<path d="M20.064 38.288C16.736 38.288 13.728 37.552 11.04 36.08C8.384 34.608 6.288 32.576 4.752 29.984C3.248 27.36 2.496 24.432 2.496 21.2C2.496 17.968 3.248 15.056 4.752 12.464C6.288 9.84 8.4 7.792 11.088 6.32C13.776 4.848 16.784 4.112 20.112 4.112C22.608 4.112 24.912 4.528 27.024 5.36C29.136 6.192 30.928 7.408 32.4 9.008L30.144 11.264C27.52 8.608 24.208 7.28 20.208 7.28C17.552 7.28 15.136 7.888 12.96 9.104C10.784 10.32 9.072 11.984 7.824 14.096C6.608 16.208 6 18.576 6 21.2C6 23.824 6.608 26.192 7.824 28.304C9.072 30.416 10.784 32.08 12.96 33.296C15.136 34.512 17.552 35.12 20.208 35.12C24.24 35.12 27.552 33.776 30.144 31.088L32.4 33.344C30.928 34.944 29.12 36.176 26.976 37.04C24.864 37.872 22.56 38.288 20.064 38.288ZM54.036 17.696C54.836 16 56.02 14.72 57.588 13.856C59.188 12.992 61.156 12.56 63.492 12.56V15.872L62.676 15.824C60.02 15.824 57.94 16.64 56.436 18.272C54.932 19.904 54.18 22.192 54.18 25.136V38H50.772V12.752H54.036V17.696ZM89.9678 12.56C93.2638 12.56 95.7918 13.392 97.5518 15.056C99.3118 16.688 100.192 19.12 100.192 22.352V38H96.9278V34.064C96.1598 35.376 95.0238 36.4 93.5198 37.136C92.0478 37.872 90.2878 38.24 88.2398 38.24C85.4238 38.24 83.1838 37.568 81.5198 36.224C79.8558 34.88 79.0238 33.104 79.0238 30.896C79.0238 28.752 79.7918 27.024 81.3278 25.712C82.8958 24.4 85.3758 23.744 88.7678 23.744H96.7838V22.208C96.7838 20.032 96.1758 18.384 94.9598 17.264C93.7438 16.112 91.9678 15.536 89.6318 15.536C88.0318 15.536 86.4958 15.808 85.0238 16.352C83.5518 16.864 82.2878 17.584 81.2318 18.512L79.6958 15.968C80.9758 14.88 82.5118 14.048 84.3038 13.472C86.0958 12.864 87.9838 12.56 89.9678 12.56ZM88.7678 35.552C90.6878 35.552 92.3358 35.12 93.7118 34.256C95.0878 33.36 96.1118 32.08 96.7838 30.416V26.288H88.8638C84.5438 26.288 82.3838 27.792 82.3838 30.8C82.3838 32.272 82.9438 33.44 84.0638 34.304C85.1838 35.136 86.7518 35.552 88.7678 35.552ZM129.32 5.024C127.848 5.024 126.728 5.424 125.96 6.224C125.224 7.024 124.856 8.208 124.856 9.776V12.752H132.632V15.632H124.952V38H121.544V15.632H117.032V12.752H121.544V9.632C121.544 7.328 122.2 5.504 123.512 4.16C124.856 2.816 126.744 2.144 129.176 2.144C130.136 2.144 131.064 2.288 131.96 2.576C132.856 2.832 133.608 3.216 134.216 3.728L133.064 6.272C132.072 5.44 130.824 5.024 129.32 5.024ZM162.05 36.464C161.41 37.04 160.61 37.488 159.65 37.808C158.722 38.096 157.746 38.24 156.722 38.24C154.354 38.24 152.53 37.6 151.25 36.32C149.97 35.04 149.33 33.232 149.33 30.896V15.632H144.818V12.752H149.33V7.232H152.738V12.752H160.418V15.632H152.738V30.704C152.738 32.208 153.106 33.36 153.842 34.16C154.61 34.928 155.698 35.312 157.106 35.312C157.81 35.312 158.482 35.2 159.122 34.976C159.794 34.752 160.37 34.432 160.85 34.016L162.05 36.464ZM188.606 12.56C191.902 12.56 194.43 13.392 196.19 15.056C197.95 16.688 198.83 19.12 198.83 22.352V38H195.566V34.064C194.798 35.376 193.662 36.4 192.158 37.136C190.686 37.872 188.926 38.24 186.878 38.24C184.062 38.24 181.822 37.568 180.158 36.224C178.494 34.88 177.662 33.104 177.662 30.896C177.662 28.752 178.43 27.024 179.966 25.712C181.534 24.4 184.014 23.744 187.406 23.744H195.422V22.208C195.422 20.032 194.814 18.384 193.598 17.264C192.382 16.112 190.606 15.536 188.27 15.536C186.67 15.536 185.134 15.808 183.662 16.352C182.19 16.864 180.926 17.584 179.87 18.512L178.334 15.968C179.614 14.88 181.15 14.048 182.942 13.472C184.734 12.864 186.622 12.56 188.606 12.56ZM187.406 35.552C189.326 35.552 190.974 35.12 192.35 34.256C193.726 33.36 194.75 32.08 195.422 30.416V26.288H187.502C183.182 26.288 181.022 27.792 181.022 30.8C181.022 32.272 181.582 33.44 182.702 34.304C183.822 35.136 185.39 35.552 187.406 35.552Z" fill="white"/>
<path d="M11.04 36.08L10.0705 37.8293L10.0794 37.8342L11.04 36.08ZM4.752 29.984L3.01682 30.9786L3.02403 30.9911L3.03142 31.0036L4.752 29.984ZM4.752 12.464L3.02596 11.4536L3.02212 11.4602L4.752 12.464ZM11.088 6.32L10.1274 4.56581L11.088 6.32ZM27.024 5.36L26.291 7.22082L26.291 7.22082L27.024 5.36ZM32.4 9.008L33.8142 10.4222L35.1707 9.0657L33.8719 7.65388L32.4 9.008ZM30.144 11.264L28.7212 12.6696L30.1354 14.101L31.5582 12.6782L30.144 11.264ZM12.96 9.104L11.9844 7.35811H11.9844L12.96 9.104ZM7.824 14.096L6.10215 13.0785L6.0964 13.0883L6.09075 13.0981L7.824 14.096ZM7.824 28.304L6.09076 29.3019L6.0964 29.3117L6.10215 29.3215L7.824 28.304ZM12.96 33.296L11.9844 35.0419L12.96 33.296ZM30.144 31.088L31.5582 29.6738L30.1181 28.2336L28.7043 29.6997L30.144 31.088ZM32.4 33.344L33.8719 34.6981L35.1707 33.2863L33.8142 31.9298L32.4 33.344ZM26.976 37.04L27.7091 38.9008L27.7163 38.898L27.7236 38.895L26.976 37.04ZM20.064 38.288V36.288C17.0422 36.288 14.3692 35.6229 12.0006 34.3258L11.04 36.08L10.0794 37.8342C13.0868 39.4811 16.4298 40.288 20.064 40.288V38.288ZM11.04 36.08L12.0095 34.3307C9.66165 33.0295 7.82598 31.2482 6.47258 28.9644L4.752 29.984L3.03142 31.0036C4.75002 33.9038 7.10635 36.1865 10.0705 37.8293L11.04 36.08ZM4.752 29.984L6.48718 28.9894C5.16862 26.689 4.496 24.1078 4.496 21.2H2.496H0.496C0.496 24.7562 1.32738 28.031 3.01682 30.9786L4.752 29.984ZM2.496 21.2H4.496C4.496 18.2919 5.16863 15.731 6.48188 13.4678L4.752 12.464L3.02212 11.4602C1.32737 14.381 0.496 17.6441 0.496 21.2H2.496ZM4.752 12.464L6.47803 13.4744C7.82946 11.1657 9.67577 9.37362 12.0486 8.07419L11.088 6.32L10.1274 4.56581C7.12423 6.21038 4.74654 8.51433 3.02597 11.4536L4.752 12.464ZM11.088 6.32L12.0486 8.07419C14.4172 6.77711 17.0902 6.112 20.112 6.112V4.112V2.112C16.4778 2.112 13.1348 2.91888 10.1274 4.56581L11.088 6.32ZM20.112 4.112V6.112C22.3821 6.112 24.4346 6.48953 26.291 7.22082L27.024 5.36L27.7571 3.49918C25.3894 2.56647 22.8339 2.112 20.112 2.112V4.112ZM27.024 5.36L26.291 7.22082C28.1343 7.94698 29.67 8.99458 30.9281 10.3621L32.4 9.008L33.8719 7.65388C32.186 5.82142 30.1377 4.43702 27.757 3.49918L27.024 5.36ZM32.4 9.008L30.9858 7.59378L28.7298 9.84978L30.144 11.264L31.5582 12.6782L33.8142 10.4222L32.4 9.008ZM30.144 11.264L31.5668 9.85838C28.5383 6.79298 24.7003 5.28 20.208 5.28V7.28V9.28C23.7157 9.28 26.5017 10.423 28.7212 12.6696L30.144 11.264ZM20.208 7.28V5.28C17.2335 5.28 14.4781 5.96455 11.9844 7.35811L12.96 9.104L13.9356 10.8499C15.7939 9.81144 17.8705 9.28 20.208 9.28V7.28ZM12.96 9.104L11.9844 7.35811C9.50481 8.74374 7.53312 10.6569 6.10215 13.0785L7.824 14.096L9.54585 15.1135C10.6109 13.3111 12.0632 11.8963 13.9356 10.8499L12.96 9.104ZM7.824 14.096L6.09075 13.0981C4.68664 15.5368 4 18.2535 4 21.2H6H8C8 18.8985 8.52936 16.8792 9.55725 15.0939L7.824 14.096ZM6 21.2H4C4 24.1465 4.68664 26.8632 6.09076 29.3019L7.824 28.304L9.55725 27.3061C8.52936 25.5208 8 23.5015 8 21.2H6ZM7.824 28.304L6.10215 29.3215C7.53312 31.7431 9.50481 33.6563 11.9844 35.0419L12.96 33.296L13.9356 31.5501C12.0632 30.5037 10.6109 29.0889 9.54585 27.2865L7.824 28.304ZM12.96 33.296L11.9844 35.0419C14.4781 36.4354 17.2335 37.12 20.208 37.12V35.12V33.12C17.8705 33.12 15.7939 32.5886 13.9356 31.5501L12.96 33.296ZM20.208 35.12V37.12C24.7349 37.12 28.5826 35.5885 31.5837 32.4763L30.144 31.088L28.7043 29.6997C26.5214 31.9635 23.7451 33.12 20.208 33.12V35.12ZM30.144 31.088L28.7298 32.5022L30.9858 34.7582L32.4 33.344L33.8142 31.9298L31.5582 29.6738L30.144 31.088ZM32.4 33.344L30.9281 31.9899C29.67 33.3575 28.1146 34.4249 26.2284 35.185L26.976 37.04L27.7236 38.895C30.1254 37.9271 32.186 36.5305 33.8719 34.6981L32.4 33.344ZM26.976 37.04L26.243 35.1792C24.3866 35.9105 22.3341 36.288 20.064 36.288V38.288V40.288C22.7859 40.288 25.3414 39.8335 27.7091 38.9008L26.976 37.04ZM54.036 17.696H52.036L55.8449 18.5492L54.036 17.696ZM57.588 13.856L56.6377 12.0962L56.6302 12.1002L56.6228 12.1043L57.588 13.856ZM63.492 12.56H65.492V10.56H63.492V12.56ZM63.492 15.872L63.3746 17.8685L65.492 17.9931V15.872H63.492ZM62.676 15.824L62.7934 13.8274L62.7348 13.824H62.676V15.824ZM56.436 18.272L57.9067 19.6274L56.436 18.272ZM54.18 38V40H56.18V38H54.18ZM50.772 38H48.772V40H50.772V38ZM50.772 12.752V10.752H48.772V12.752H50.772ZM54.036 12.752H56.036V10.752H54.036V12.752ZM54.036 17.696L55.8449 18.5492C56.4743 17.2148 57.3722 16.2584 58.5532 15.6077L57.588 13.856L56.6228 12.1043C54.6678 13.1816 53.1977 14.7852 52.2271 16.8428L54.036 17.696ZM57.588 13.856L58.5383 15.6158C59.7749 14.948 61.3958 14.56 63.492 14.56V12.56V10.56C60.9162 10.56 58.6011 11.036 56.6377 12.0962L57.588 13.856ZM63.492 12.56H61.492V15.872H63.492H65.492V12.56H63.492ZM63.492 15.872L63.6094 13.8755L62.7934 13.8274L62.676 15.824L62.5586 17.8205L63.3746 17.8685L63.492 15.872ZM62.676 15.824V13.824C59.5806 13.824 56.9219 14.7935 54.9653 16.9166L56.436 18.272L57.9067 19.6274C58.9581 18.4865 60.4594 17.824 62.676 17.824V15.824ZM56.436 18.272L54.9653 16.9166C53.0222 19.0251 52.18 21.8574 52.18 25.136H54.18H56.18C56.18 22.5266 56.8418 20.7829 57.9067 19.6274L56.436 18.272ZM54.18 25.136H52.18V38H54.18H56.18V25.136H54.18ZM54.18 38V36H50.772V38V40H54.18V38ZM50.772 38H52.772V12.752H50.772H48.772V38H50.772ZM50.772 12.752V14.752H54.036V12.752V10.752H50.772V12.752ZM54.036 12.752H52.036V17.696H54.036H56.036V12.752H54.036ZM97.5518 15.056L96.1777 16.5093L96.1848 16.5159L96.1919 16.5225L97.5518 15.056ZM100.192 38V40H102.192V38H100.192ZM96.9277 38H94.9277V40H96.9277V38ZM96.9277 34.064H98.9277V26.6883L95.2017 33.0536L96.9277 34.064ZM93.5198 37.136L92.6406 35.3396L92.633 35.3433L92.6253 35.3471L93.5198 37.136ZM81.5198 36.224L82.7764 34.6681L81.5198 36.224ZM81.3278 25.712L80.0443 24.1781L80.0365 24.1847L80.0288 24.1913L81.3278 25.712ZM96.7838 23.744V25.744H98.7838V23.744H96.7838ZM94.9598 17.264L93.5843 18.7159L93.5945 18.7256L93.6048 18.7351L94.9598 17.264ZM85.0238 16.352L85.6808 18.241L85.699 18.2347L85.717 18.228L85.0238 16.352ZM81.2318 18.512L79.5196 19.5457L80.7557 21.5929L82.552 20.0143L81.2318 18.512ZM79.6958 15.968L78.4005 14.4441L77.1045 15.5457L77.9836 17.0017L79.6958 15.968ZM84.3037 13.472L84.9158 15.3761L84.9311 15.3711L84.9463 15.366L84.3037 13.472ZM93.7118 34.256L94.7753 35.9498L94.7893 35.941L94.8031 35.932L93.7118 34.256ZM96.7838 30.416L98.6382 31.1649L98.7838 30.8046V30.416H96.7838ZM96.7838 26.288H98.7838V24.288H96.7838V26.288ZM84.0638 34.304L82.8421 35.8876L82.8565 35.8987L82.8711 35.9095L84.0638 34.304ZM89.9678 12.56V14.56C92.9402 14.56 94.906 15.3069 96.1777 16.5093L97.5518 15.056L98.9258 13.6027C96.6775 11.4771 93.5873 10.56 89.9678 10.56V12.56ZM97.5518 15.056L96.1919 16.5225C97.4166 17.6582 98.1917 19.4756 98.1917 22.352H100.192H102.192C102.192 18.7644 101.207 15.7178 98.9116 13.5895L97.5518 15.056ZM100.192 22.352H98.1917V38H100.192H102.192V22.352H100.192ZM100.192 38V36H96.9277V38V40H100.192V38ZM96.9277 38H98.9277V34.064H96.9277H94.9277V38H96.9277ZM96.9277 34.064L95.2017 33.0536C94.6525 33.9918 93.8285 34.7583 92.6406 35.3396L93.5198 37.136L94.3989 38.9324C96.219 38.0417 97.667 36.7602 98.6538 35.0744L96.9277 34.064ZM93.5198 37.136L92.6253 35.3471C91.4906 35.9145 90.0515 36.24 88.2398 36.24V38.24V40.24C90.524 40.24 92.6049 39.8295 94.4142 38.9249L93.5198 37.136ZM88.2398 38.24V36.24C85.7354 36.24 83.9858 35.6449 82.7764 34.6681L81.5198 36.224L80.2631 37.7799C82.3817 39.4911 85.1121 40.24 88.2398 40.24V38.24ZM81.5198 36.224L82.7764 34.6681C81.5998 33.7178 81.0238 32.5223 81.0238 30.896H79.0238H77.0238C77.0238 33.6857 78.1117 36.0422 80.2631 37.7799L81.5198 36.224ZM79.0238 30.896H81.0238C81.0238 29.2962 81.5658 28.139 82.6267 27.2327L81.3278 25.712L80.0288 24.1913C78.0177 25.909 77.0238 28.2078 77.0238 30.896H79.0238ZM81.3278 25.712L82.6112 27.2459C83.6484 26.378 85.5592 25.744 88.7678 25.744V23.744V21.744C85.1923 21.744 82.1431 22.422 80.0443 24.1781L81.3278 25.712ZM88.7678 23.744V25.744H96.7838V23.744V21.744H88.7678V23.744ZM96.7838 23.744H98.7838V22.208H96.7838H94.7838V23.744H96.7838ZM96.7838 22.208H98.7838C98.7838 19.6589 98.0611 17.4014 96.3147 15.7929L94.9598 17.264L93.6048 18.7351C94.2904 19.3666 94.7838 20.4051 94.7838 22.208H96.7838ZM94.9598 17.264L96.3352 15.8121C94.6224 14.1894 92.2759 13.536 89.6318 13.536V15.536V17.536C91.6596 17.536 92.8651 18.0346 93.5843 18.7159L94.9598 17.264ZM89.6318 15.536V13.536C87.7999 13.536 86.0288 13.8484 84.3305 14.476L85.0238 16.352L85.717 18.228C86.9627 17.7676 88.2636 17.536 89.6318 17.536V15.536ZM85.0238 16.352L84.3667 14.463C82.6773 15.0506 81.1816 15.8936 79.9115 17.0097L81.2318 18.512L82.552 20.0143C83.3939 19.2744 84.4262 18.6774 85.6808 18.241L85.0238 16.352ZM81.2318 18.512L82.9439 17.4783L81.4079 14.9343L79.6958 15.968L77.9836 17.0017L79.5196 19.5457L81.2318 18.512ZM79.6958 15.968L80.9911 17.4919C82.0477 16.5937 83.3442 15.8812 84.9158 15.3761L84.3037 13.472L83.6917 11.5679C81.6793 12.2148 79.9038 13.1663 78.4005 14.4441L79.6958 15.968ZM84.3037 13.472L84.9463 15.366C86.5215 14.8315 88.1916 14.56 89.9678 14.56V12.56V10.56C87.7759 10.56 85.67 10.8965 83.6612 11.578L84.3037 13.472ZM88.7678 35.552V37.552C90.9947 37.552 93.0266 37.0478 94.7753 35.9498L93.7118 34.256L92.6482 32.5622C91.6449 33.1922 90.3808 33.552 88.7678 33.552V35.552ZM93.7118 34.256L94.8031 35.932C96.5544 34.7916 97.8278 33.1718 98.6382 31.1649L96.7838 30.416L94.9293 29.6671C94.3957 30.9882 93.6211 31.9284 92.6204 32.58L93.7118 34.256ZM96.7838 30.416H98.7838V26.288H96.7838H94.7838V30.416H96.7838ZM96.7838 26.288V24.288H88.8638V26.288V28.288H96.7838V26.288ZM88.8638 26.288V24.288C86.5332 24.288 84.4294 24.6825 82.8609 25.7747C81.1609 26.9584 80.3838 28.7498 80.3838 30.8H82.3838H84.3838C84.3838 29.8422 84.6867 29.3776 85.1466 29.0573C85.7381 28.6455 86.8743 28.288 88.8638 28.288V26.288ZM82.3838 30.8H80.3838C80.3838 32.8626 81.2085 34.6273 82.8421 35.8876L84.0638 34.304L85.2854 32.7204C84.679 32.2527 84.3838 31.6814 84.3838 30.8H82.3838ZM84.0638 34.304L82.8711 35.9095C84.4591 37.0892 86.5063 37.552 88.7678 37.552V35.552V33.552C86.9972 33.552 85.9084 33.1828 85.2564 32.6985L84.0638 34.304ZM125.96 6.224L124.517 4.83893L124.503 4.85425L124.488 4.86989L125.96 6.224ZM124.856 12.752H122.856V14.752H124.856V12.752ZM132.632 12.752H134.632V10.752H132.632V12.752ZM132.632 15.632V17.632H134.632V15.632H132.632ZM124.952 15.632V13.632H122.952V15.632H124.952ZM124.952 38V40H126.952V38H124.952ZM121.544 38H119.544V40H121.544V38ZM121.544 15.632H123.544V13.632H121.544V15.632ZM117.032 15.632H115.032V17.632H117.032V15.632ZM117.032 12.752V10.752H115.032V12.752H117.032ZM121.544 12.752V14.752H123.544V12.752H121.544ZM123.512 4.16L122.098 2.74578L122.09 2.7543L122.081 2.76292L123.512 4.16ZM131.96 2.576L131.348 4.48006L131.379 4.49006L131.411 4.49905L131.96 2.576ZM134.216 3.728L136.038 4.55301L136.663 3.17357L135.505 2.19817L134.216 3.728ZM133.064 6.272L131.779 7.80438L133.799 9.49835L134.886 7.09702L133.064 6.272ZM129.32 5.024V3.024C127.489 3.024 125.774 3.52973 124.517 4.83893L125.96 6.224L127.403 7.60906C127.682 7.31827 128.207 7.024 129.32 7.024V5.024ZM125.96 6.224L124.488 4.86989C123.289 6.17408 122.856 7.92633 122.856 9.776H124.856H126.856C126.856 8.48966 127.16 7.87392 127.432 7.57811L125.96 6.224ZM124.856 9.776H122.856V12.752H124.856H126.856V9.776H124.856ZM124.856 12.752V14.752H132.632V12.752V10.752H124.856V12.752ZM132.632 12.752H130.632V15.632H132.632H134.632V12.752H132.632ZM132.632 15.632V13.632H124.952V15.632V17.632H132.632V15.632ZM124.952 15.632H122.952V38H124.952H126.952V15.632H124.952ZM124.952 38V36H121.544V38V40H124.952V38ZM121.544 38H123.544V15.632H121.544H119.544V38H121.544ZM121.544 15.632V13.632H117.032V15.632V17.632H121.544V15.632ZM117.032 15.632H119.032V12.752H117.032H115.032V15.632H117.032ZM117.032 12.752V14.752H121.544V12.752V10.752H117.032V12.752ZM121.544 12.752H123.544V9.632H121.544H119.544V12.752H121.544ZM121.544 9.632H123.544C123.544 7.72476 124.075 6.44649 124.943 5.55707L123.512 4.16L122.081 2.76292C120.325 4.56151 119.544 6.93123 119.544 9.632H121.544ZM123.512 4.16L124.926 5.57421C125.798 4.70247 127.119 4.144 129.176 4.144V2.144V0.143998C126.369 0.143998 123.914 0.929522 122.098 2.74578L123.512 4.16ZM129.176 2.144V4.144C129.933 4.144 130.654 4.25691 131.348 4.48006L131.96 2.576L132.572 0.671941C131.475 0.31909 130.34 0.143998 129.176 0.143998V2.144ZM131.96 2.576L131.411 4.49905C132.082 4.69077 132.57 4.95617 132.928 5.25782L134.216 3.728L135.505 2.19817C134.647 1.47583 133.631 0.973231 132.51 0.65295L131.96 2.576ZM134.216 3.728L132.394 2.90298L131.242 5.44698L133.064 6.272L134.886 7.09702L136.038 4.55301L134.216 3.728ZM133.064 6.272L134.349 4.73962C132.94 3.55782 131.214 3.024 129.32 3.024V5.024V7.024C130.434 7.024 131.204 7.32218 131.779 7.80438L133.064 6.272ZM162.05 36.464L163.388 37.9506L164.511 36.9401L163.846 35.5837L162.05 36.464ZM159.65 37.808L160.243 39.7181L160.263 39.712L160.282 39.7054L159.65 37.808ZM151.25 36.32L149.836 37.7342L151.25 36.32ZM149.33 15.632H151.33V13.632H149.33V15.632ZM144.818 15.632H142.818V17.632H144.818V15.632ZM144.818 12.752V10.752H142.818V12.752H144.818ZM149.33 12.752V14.752H151.33V12.752H149.33ZM149.33 7.232V5.232H147.33V7.232H149.33ZM152.738 7.232H154.738V5.232H152.738V7.232ZM152.738 12.752H150.738V14.752H152.738V12.752ZM160.418 12.752H162.418V10.752H160.418V12.752ZM160.418 15.632V17.632H162.418V15.632H160.418ZM152.738 15.632V13.632H150.738V15.632H152.738ZM153.842 34.16L152.37 35.5141L152.398 35.5448L152.428 35.5742L153.842 34.16ZM159.122 34.976L158.489 33.0786L158.475 33.0834L158.461 33.0883L159.122 34.976ZM160.85 34.016L162.646 33.1357L161.503 30.8037L159.54 32.5046L160.85 34.016ZM162.05 36.464L160.712 34.9774C160.309 35.3401 159.762 35.6626 159.017 35.9106L159.65 37.808L160.282 39.7054C161.458 39.3134 162.511 38.7399 163.388 37.9506L162.05 36.464ZM159.65 37.808L159.057 35.8979C158.331 36.1232 157.556 36.24 156.722 36.24V38.24V40.24C157.936 40.24 159.113 40.0688 160.243 39.7181L159.65 37.808ZM156.722 38.24V36.24C154.714 36.24 153.464 35.7055 152.664 34.9058L151.25 36.32L149.836 37.7342C151.596 39.4945 153.993 40.24 156.722 40.24V38.24ZM151.25 36.32L152.664 34.9058C151.859 34.1011 151.33 32.8626 151.33 30.896H149.33H147.33C147.33 33.6014 148.08 35.9789 149.836 37.7342L151.25 36.32ZM149.33 30.896H151.33V15.632H149.33H147.33V30.896H149.33ZM149.33 15.632V13.632H144.818V15.632V17.632H149.33V15.632ZM144.818 15.632H146.818V12.752H144.818H142.818V15.632H144.818ZM144.818 12.752V14.752H149.33V12.752V10.752H144.818V12.752ZM149.33 12.752H151.33V7.232H149.33H147.33V12.752H149.33ZM149.33 7.232V9.232H152.738V7.232V5.232H149.33V7.232ZM152.738 7.232H150.738V12.752H152.738H154.738V7.232H152.738ZM152.738 12.752V14.752H160.418V12.752V10.752H152.738V12.752ZM160.418 12.752H158.418V15.632H160.418H162.418V12.752H160.418ZM160.418 15.632V13.632H152.738V15.632V17.632H160.418V15.632ZM152.738 15.632H150.738V30.704H152.738H154.738V15.632H152.738ZM152.738 30.704H150.738C150.738 32.5159 151.183 34.2236 152.37 35.5141L153.842 34.16L155.314 32.8059C155.029 32.4964 154.738 31.9001 154.738 30.704H152.738ZM153.842 34.16L152.428 35.5742C153.673 36.8192 155.331 37.312 157.106 37.312V35.312V33.312C156.064 33.312 155.547 33.0368 155.256 32.7458L153.842 34.16ZM157.106 35.312V37.312C158.026 37.312 158.922 37.1649 159.783 36.8637L159.122 34.976L158.461 33.0883C158.042 33.2351 157.594 33.312 157.106 33.312V35.312ZM159.122 34.976L159.754 36.8734C160.647 36.5759 161.46 36.134 162.16 35.5274L160.85 34.016L159.54 32.5046C159.28 32.73 158.941 32.9281 158.489 33.0786L159.122 34.976ZM160.85 34.016L159.054 34.8963L160.254 37.3443L162.05 36.464L163.846 35.5837L162.646 33.1357L160.85 34.016ZM196.19 15.056L194.816 16.5093L194.823 16.5159L194.83 16.5225L196.19 15.056ZM198.83 38V40H200.83V38H198.83ZM195.566 38H193.566V40H195.566V38ZM195.566 34.064H197.566V26.6883L193.84 33.0536L195.566 34.064ZM192.158 37.136L191.279 35.3396L191.271 35.3433L191.263 35.3471L192.158 37.136ZM180.158 36.224L181.415 34.6681L180.158 36.224ZM179.966 25.712L178.682 24.1781L178.675 24.1847L178.667 24.1913L179.966 25.712ZM195.422 23.744V25.744H197.422V23.744H195.422ZM193.598 17.264L192.222 18.7159L192.233 18.7256L192.243 18.7351L193.598 17.264ZM183.662 16.352L184.319 18.241L184.337 18.2347L184.355 18.228L183.662 16.352ZM179.87 18.512L178.158 19.5457L179.394 21.5929L181.19 20.0143L179.87 18.512ZM178.334 15.968L177.039 14.4441L175.743 15.5457L176.622 17.0017L178.334 15.968ZM182.942 13.472L183.554 15.3761L183.569 15.3711L183.584 15.366L182.942 13.472ZM192.35 34.256L193.413 35.9498L193.427 35.941L193.441 35.932L192.35 34.256ZM195.422 30.416L197.276 31.1649L197.422 30.8046V30.416H195.422ZM195.422 26.288H197.422V24.288H195.422V26.288ZM182.702 34.304L181.48 35.8876L181.495 35.8987L181.509 35.9095L182.702 34.304ZM188.606 12.56V14.56C191.578 14.56 193.544 15.3069 194.816 16.5093L196.19 15.056L197.564 13.6027C195.316 11.4771 192.225 10.56 188.606 10.56V12.56ZM196.19 15.056L194.83 16.5225C196.055 17.6582 196.83 19.4756 196.83 22.352H198.83H200.83C200.83 18.7644 199.845 15.7178 197.55 13.5895L196.19 15.056ZM198.83 22.352H196.83V38H198.83H200.83V22.352H198.83ZM198.83 38V36H195.566V38V40H198.83V38ZM195.566 38H197.566V34.064H195.566H193.566V38H195.566ZM195.566 34.064L193.84 33.0536C193.291 33.9918 192.467 34.7583 191.279 35.3396L192.158 37.136L193.037 38.9324C194.857 38.0417 196.305 36.7602 197.292 35.0744L195.566 34.064ZM192.158 37.136L191.263 35.3471C190.129 35.9145 188.69 36.24 186.878 36.24V38.24V40.24C189.162 40.24 191.243 39.8295 193.052 38.9249L192.158 37.136ZM186.878 38.24V36.24C184.374 36.24 182.624 35.6449 181.415 34.6681L180.158 36.224L178.901 37.7799C181.02 39.4911 183.75 40.24 186.878 40.24V38.24ZM180.158 36.224L181.415 34.6681C180.238 33.7178 179.662 32.5223 179.662 30.896H177.662H175.662C175.662 33.6857 176.75 36.0422 178.901 37.7799L180.158 36.224ZM177.662 30.896H179.662C179.662 29.2962 180.204 28.139 181.265 27.2327L179.966 25.712L178.667 24.1913C176.656 25.909 175.662 28.2078 175.662 30.896H177.662ZM179.966 25.712L181.249 27.2459C182.286 26.378 184.197 25.744 187.406 25.744V23.744V21.744C183.83 21.744 180.781 22.422 178.682 24.1781L179.966 25.712ZM187.406 23.744V25.744H195.422V23.744V21.744H187.406V23.744ZM195.422 23.744H197.422V22.208H195.422H193.422V23.744H195.422ZM195.422 22.208H197.422C197.422 19.6589 196.699 17.4014 194.953 15.7929L193.598 17.264L192.243 18.7351C192.929 19.3666 193.422 20.4051 193.422 22.208H195.422ZM193.598 17.264L194.973 15.8121C193.261 14.1894 190.914 13.536 188.27 13.536V15.536V17.536C190.298 17.536 191.503 18.0346 192.222 18.7159L193.598 17.264ZM188.27 15.536V13.536C186.438 13.536 184.667 13.8484 182.969 14.476L183.662 16.352L184.355 18.228C185.601 17.7676 186.902 17.536 188.27 17.536V15.536ZM183.662 16.352L183.005 14.463C181.315 15.0506 179.82 15.8936 178.55 17.0097L179.87 18.512L181.19 20.0143C182.032 19.2744 183.064 18.6774 184.319 18.241L183.662 16.352ZM179.87 18.512L181.582 17.4783L180.046 14.9343L178.334 15.968L176.622 17.0017L178.158 19.5457L179.87 18.512ZM178.334 15.968L179.629 17.4919C180.686 16.5937 181.982 15.8812 183.554 15.3761L182.942 13.472L182.33 11.5679C180.317 12.2148 178.542 13.1663 177.039 14.4441L178.334 15.968ZM182.942 13.472L183.584 15.366C185.16 14.8315 186.83 14.56 188.606 14.56V12.56V10.56C186.414 10.56 184.308 10.8965 182.299 11.578L182.942 13.472ZM187.406 35.552V37.552C189.633 37.552 191.665 37.0478 193.413 35.9498L192.35 34.256L191.286 32.5622C190.283 33.1922 189.019 33.552 187.406 33.552V35.552ZM192.35 34.256L193.441 35.932C195.193 34.7916 196.466 33.1718 197.276 31.1649L195.422 30.416L193.567 29.6671C193.034 30.9882 192.259 31.9284 191.259 32.58L192.35 34.256ZM195.422 30.416H197.422V26.288H195.422H193.422V30.416H195.422ZM195.422 26.288V24.288H187.502V26.288V28.288H195.422V26.288ZM187.502 26.288V24.288C185.171 24.288 183.068 24.6825 181.499 25.7747C179.799 26.9584 179.022 28.7498 179.022 30.8H181.022H183.022C183.022 29.8422 183.325 29.3776 183.785 29.0573C184.376 28.6455 185.512 28.288 187.502 28.288V26.288ZM181.022 30.8H179.022C179.022 32.8626 179.847 34.6273 181.48 35.8876L182.702 34.304L183.923 32.7204C183.317 32.2527 183.022 31.6814 183.022 30.8H181.022ZM182.702 34.304L181.509 35.9095C183.097 37.0892 185.144 37.552 187.406 37.552V35.552V33.552C185.635 33.552 184.547 33.1828 183.895 32.6985L182.702 34.304Z" fill="white" mask="url(#path-1-outside-1_1609_2907)"/>
</svg>
